<?xml version="1.0" encoding="UTF-8" standalone="no"?>
<!DOCTYPE svg PUBLIC "-//W3C//DTD SVG 1.1//EN" "http://www.w3.org/Graphics/SVG/1.1/DTD/svg11.dtd">
<svg width="100%" height="100%" viewBox="0 0 1038 238" version="1.1" xmlns="http://www.w3.org/2000/svg" xmlns:xlink="http://www.w3.org/1999/xlink" xml:space="preserve" xmlns:serif="http://www.serif.com/" style="fill-rule:evenodd;clip-rule:evenodd;stroke-linejoin:round;stroke-miterlimit:2;">
    <g transform="matrix(4.16667,0,0,4.16667,73.2925,107.11)">
        <path d="M0,8.013L9.445,-1.447L18.825,7.938L17.378,9.389L9.445,1.462L1.446,9.46L0,8.013Z" style="fill:rgb(24,44,53);fill-rule:nonzero;"/>
    </g>
    <g transform="matrix(4.16667,0,0,4.16667,12.0333,112.688)">
        <path d="M0,-0.003L24.147,24.139L48.3,-0.003L24.147,-24.156L0,-0.003ZM-2.888,-0.003L24.147,-27.045L51.197,-0.003L24.147,27.042L-2.888,-0.003Z" style="fill:rgb(24,44,53);fill-rule:nonzero;"/>
    </g>
    <g transform="matrix(4.16667,0,0,4.16667,274.182,220.075)">
        <path d="M0,-10.298C1.457,-10.298 2.545,-9.815 3.477,-8.971C3.548,-8.9 3.561,-8.782 3.49,-8.71L3.259,-8.467C3.175,-8.383 3.104,-8.395 3.02,-8.484C2.2,-9.215 1.171,-9.655 0,-9.655C-2.503,-9.655 -4.464,-7.61 -4.464,-5.136C-4.464,-2.675 -2.503,-0.643 0,-0.643C1.23,-0.643 2.158,-1.13 3.02,-1.844C3.104,-1.915 3.188,-1.915 3.246,-1.873L3.49,-1.63C3.561,-1.575 3.561,-1.458 3.49,-1.386C2.516,-0.445 1.272,0 0,0C-2.86,0 -5.178,-2.259 -5.178,-5.136C-5.178,-7.996 -2.86,-10.298 0,-10.298" style="fill:rgb(32,48,55);fill-rule:nonzero;"/>
    </g>
    <g transform="matrix(4.16667,0,0,4.16667,314.654,197.364)">
        <path d="M0,4.892C0.874,4.892 1.63,4.363 1.903,4.006L1.903,2.431C1.718,2.347 1.146,2.133 0.458,2.133C-0.63,2.133 -1.356,2.691 -1.356,3.536C-1.356,4.363 -0.785,4.892 0,4.892M0.458,1.616C1.117,1.616 1.747,1.818 1.903,1.872C1.903,0.617 1.777,-0.013 0.643,-0.013C-0.298,-0.013 -0.945,0.331 -1.071,0.373C-1.188,0.415 -1.26,0.356 -1.285,0.26L-1.356,0.087C-1.402,-0.043 -1.344,-0.102 -1.272,-0.127C-1.23,-0.156 -0.5,-0.559 0.689,-0.559C2.432,-0.559 2.503,0.487 2.503,1.948L2.503,5.123C2.503,5.224 2.419,5.308 2.318,5.308L2.146,5.308C2.045,5.308 2.003,5.249 1.974,5.152L1.919,4.636C1.546,4.98 0.844,5.451 -0.071,5.451C-1.129,5.451 -1.944,4.72 -1.944,3.548C-1.944,2.448 -1.045,1.616 0.458,1.616" style="fill:rgb(32,48,55);fill-rule:nonzero;"/>
    </g>
    <g transform="matrix(4.16667,0,0,4.16667,345.995,218.095)">
        <path d="M0,-5.203C0,-5.304 0.084,-5.388 0.185,-5.388L0.357,-5.388C0.441,-5.388 0.512,-5.333 0.529,-5.232L0.588,-4.644C0.73,-4.846 1.302,-5.535 2.373,-5.535C2.831,-5.535 3.146,-5.404 3.259,-5.362C3.389,-5.316 3.46,-5.22 3.418,-5.102L3.305,-4.816C3.259,-4.716 3.175,-4.703 3.074,-4.745C3.002,-4.774 2.717,-4.917 2.331,-4.917C1.213,-4.917 0.672,-4.018 0.63,-3.931L0.63,0.148C0.63,0.261 0.571,0.332 0.441,0.332L0.155,0.332C0.059,0.332 0,0.248 0,0.148L0,-5.203Z" style="fill:rgb(32,48,55);fill-rule:nonzero;"/>
    </g>
    <g transform="matrix(4.16667,0,0,4.16667,377.37,202.961)">
        <path d="M0,-1.571C0,-1.672 0.084,-1.756 0.185,-1.756L0.441,-1.756C0.542,-1.756 0.63,-1.672 0.63,-1.571L0.63,3.78C0.63,3.893 0.571,3.964 0.441,3.964L0.155,3.964C0.055,3.964 0,3.88 0,3.78L0,-1.571ZM-0.172,-5.035C-0.172,-5.304 0.042,-5.535 0.315,-5.535C0.588,-5.535 0.802,-5.304 0.802,-5.035C0.802,-4.775 0.588,-4.561 0.315,-4.561C0.042,-4.561 -0.172,-4.775 -0.172,-5.035" style="fill:rgb(32,48,55);fill-rule:nonzero;"/>
    </g>
    <g transform="matrix(4.16667,0,0,4.16667,401.08,218.095)">
        <path d="M0,-5.203C0,-5.304 0.084,-5.388 0.202,-5.388L0.345,-5.388C0.441,-5.388 0.5,-5.333 0.513,-5.245L0.571,-4.632C0.756,-4.833 1.545,-5.535 2.688,-5.535C4.292,-5.535 4.994,-4.518 4.994,-2.914L4.994,0.148C4.994,0.248 4.905,0.332 4.805,0.332L4.548,0.332C4.448,0.332 4.364,0.248 4.364,0.148L4.364,-2.914C4.364,-4.233 3.746,-4.917 2.659,-4.917C1.487,-4.917 0.672,-4.002 0.613,-3.931L0.613,0.148C0.613,0.261 0.559,0.332 0.429,0.332L0.155,0.332C0.059,0.332 0,0.248 0,0.148L0,-5.203Z" style="fill:rgb(32,48,55);fill-rule:nonzero;"/>
    </g>
    <g transform="matrix(4.16667,0,0,4.16667,459.665,227.935)">
        <path d="M0,-5.49C0,-6.691 -0.815,-7.321 -1.76,-7.321C-2.864,-7.321 -3.578,-6.523 -3.578,-5.49C-3.578,-4.49 -2.961,-3.659 -1.76,-3.659C-0.689,-3.659 0,-4.473 0,-5.49M-1.676,1.818C-0.386,1.818 0.601,1.062 0.601,0.087C0.601,-0.572 0.197,-1.173 -0.861,-1.173L-2.663,-1.173C-2.805,-1.156 -3.822,-0.757 -3.822,0.218C-3.822,1.003 -3.062,1.818 -1.676,1.818M-3.721,-4.045C-3.876,-4.247 -4.166,-4.788 -4.166,-5.477C-4.166,-6.85 -3.204,-7.896 -1.659,-7.896L0.685,-7.896C0.798,-7.896 0.869,-7.808 0.869,-7.707L0.869,-7.552C0.869,-7.481 0.827,-7.392 0.743,-7.38L-0.286,-7.308C-0.017,-7.166 0.601,-6.666 0.601,-5.477C0.601,-4.205 -0.315,-3.1 -1.776,-3.1C-2.633,-3.1 -3.15,-3.415 -3.334,-3.617C-3.448,-3.575 -4.065,-3.26 -4.065,-2.588C-4.065,-1.916 -3.49,-1.757 -2.936,-1.757L-0.861,-1.757C0.37,-1.757 1.256,-1.198 1.256,0.074C1.256,1.288 0.084,2.406 -1.659,2.406C-3.607,2.406 -4.452,1.259 -4.452,0.289C-4.452,-0.555 -3.851,-1.03 -3.549,-1.215C-3.834,-1.269 -4.666,-1.656 -4.666,-2.516C-4.666,-3.474 -3.876,-3.961 -3.721,-4.045" style="fill:rgb(32,48,55);fill-rule:nonzero;"/>
    </g>
    <g transform="matrix(4.16667,0,0,4.16667,507.279,202.961)">
        <path d="M0,-1.571C0,-1.672 0.084,-1.756 0.185,-1.756L0.441,-1.756C0.542,-1.756 0.63,-1.672 0.63,-1.571L0.63,3.78C0.63,3.893 0.571,3.964 0.441,3.964L0.155,3.964C0.055,3.964 0,3.88 0,3.78L0,-1.571ZM-0.172,-5.035C-0.172,-5.304 0.042,-5.535 0.315,-5.535C0.588,-5.535 0.802,-5.304 0.802,-5.035C0.802,-4.775 0.588,-4.561 0.315,-4.561C0.042,-4.561 -0.172,-4.775 -0.172,-5.035" style="fill:rgb(32,48,55);fill-rule:nonzero;"/>
    </g>
    <g transform="matrix(4.16667,0,0,4.16667,529.624,198.549)">
        <path d="M0,4.322L0.143,4.095C0.185,4.024 0.298,3.994 0.399,4.078C0.542,4.192 1.13,4.637 1.928,4.637C2.747,4.637 3.301,4.179 3.301,3.621C3.301,2.966 2.659,2.693 1.701,2.336C0.685,1.974 -0.059,1.533 -0.059,0.647C-0.059,0.017 0.5,-0.844 1.814,-0.844C2.575,-0.844 3.146,-0.571 3.431,-0.386C3.515,-0.327 3.545,-0.214 3.49,-0.113L3.402,0.047C3.347,0.143 3.229,0.173 3.133,0.118C3.003,0.03 2.432,-0.285 1.814,-0.285C0.916,-0.285 0.584,0.244 0.584,0.631C0.584,1.206 1.101,1.475 1.945,1.777C3.016,2.176 3.96,2.533 3.96,3.579C3.96,4.435 3.074,5.166 1.928,5.166C0.958,5.166 0.37,4.767 0.055,4.524C0,4.482 -0.046,4.393 0,4.322" style="fill:rgb(32,48,55);fill-rule:nonzero;"/>
    </g>
    <g transform="matrix(4.16667,0,0,4.16667,590.081,202.961)">
        <path d="M0,-1.571C0,-1.672 0.084,-1.756 0.185,-1.756L0.441,-1.756C0.542,-1.756 0.63,-1.672 0.63,-1.571L0.63,3.78C0.63,3.893 0.571,3.964 0.441,3.964L0.156,3.964C0.055,3.964 0,3.88 0,3.78L0,-1.571ZM-0.172,-5.035C-0.172,-5.304 0.042,-5.535 0.315,-5.535C0.588,-5.535 0.802,-5.304 0.802,-5.035C0.802,-4.775 0.588,-4.561 0.315,-4.561C0.042,-4.561 -0.172,-4.775 -0.172,-5.035" style="fill:rgb(32,48,55);fill-rule:nonzero;"/>
    </g>
    <g transform="matrix(4.16667,0,0,4.16667,613.793,218.095)">
        <path d="M0,-5.203C0,-5.304 0.084,-5.388 0.202,-5.388L0.344,-5.388C0.441,-5.388 0.5,-5.333 0.512,-5.245L0.571,-4.632C0.756,-4.833 1.545,-5.535 2.688,-5.535C4.292,-5.535 4.993,-4.518 4.993,-2.914L4.993,0.148C4.993,0.248 4.905,0.332 4.804,0.332L4.548,0.332C4.447,0.332 4.363,0.248 4.363,0.148L4.363,-2.914C4.363,-4.233 3.746,-4.917 2.658,-4.917C1.486,-4.917 0.672,-4.002 0.613,-3.931L0.613,0.148C0.613,0.261 0.559,0.332 0.428,0.332L0.155,0.332C0.059,0.332 0,0.248 0,0.148L0,-5.203Z" style="fill:rgb(32,48,55);fill-rule:nonzero;"/>
    </g>
    <g transform="matrix(4.16667,0,0,4.16667,690.541,197.483)">
        <path d="M0,4.834C1.26,4.834 2.247,3.763 2.247,2.402C2.247,1.088 1.26,0.013 0,0.013C-1.272,0.013 -2.259,1.088 -2.259,2.402C-2.259,3.763 -1.272,4.834 0,4.834M0,-0.588C1.604,-0.588 2.877,0.773 2.877,2.402C2.877,4.078 1.604,5.422 0,5.422C-1.617,5.422 -2.873,4.078 -2.873,2.402C-2.873,0.773 -1.617,-0.588 0,-0.588" style="fill:rgb(32,48,55);fill-rule:nonzero;"/>
    </g>
    <g transform="matrix(4.16667,0,0,4.16667,721.547,219.303)">
        <path d="M0,-5.493C0,-5.594 0.089,-5.678 0.189,-5.678L0.445,-5.678C0.547,-5.678 0.631,-5.594 0.631,-5.493L0.631,-2.419C0.631,-1.087 1.248,-0.415 2.336,-0.415C3.52,-0.415 4.179,-1.344 4.221,-1.415L4.221,-5.493C4.221,-5.606 4.293,-5.678 4.41,-5.678L4.666,-5.678C4.767,-5.678 4.852,-5.594 4.852,-5.493L4.852,-0.142C4.852,-0.042 4.767,0.042 4.666,0.042L4.494,0.042C4.381,0.042 4.339,-0.042 4.322,-0.13L4.268,-0.688C4.107,-0.487 3.423,0.185 2.289,0.185C0.689,0.185 0,-0.802 0,-2.419L0,-5.493Z" style="fill:rgb(32,48,55);fill-rule:nonzero;"/>
    </g>
    <g transform="matrix(4.16667,0,0,4.16667,762.917,218.095)">
        <path d="M0,-5.203C0,-5.304 0.084,-5.388 0.185,-5.388L0.356,-5.388C0.44,-5.388 0.512,-5.333 0.529,-5.232L0.588,-4.644C0.73,-4.846 1.302,-5.535 2.372,-5.535C2.83,-5.535 3.146,-5.404 3.259,-5.362C3.389,-5.316 3.46,-5.22 3.418,-5.102L3.305,-4.816C3.259,-4.716 3.175,-4.703 3.074,-4.745C3.003,-4.774 2.717,-4.917 2.33,-4.917C1.214,-4.917 0.672,-4.018 0.63,-3.931L0.63,0.148C0.63,0.261 0.571,0.332 0.44,0.332L0.155,0.332C0.059,0.332 0,0.248 0,0.148L0,-5.203Z" style="fill:rgb(32,48,55);fill-rule:nonzero;"/>
    </g>
    <g transform="matrix(4.16667,0,0,4.16667,819.26,218.095)">
        <path d="M0,-5.203C0,-5.304 0.084,-5.388 0.202,-5.388L0.345,-5.388C0.441,-5.388 0.5,-5.333 0.513,-5.245L0.571,-4.632C0.756,-4.833 1.546,-5.535 2.688,-5.535C4.292,-5.535 4.993,-4.518 4.993,-2.914L4.993,0.148C4.993,0.248 4.905,0.332 4.805,0.332L4.549,0.332C4.447,0.332 4.363,0.248 4.363,0.148L4.363,-2.914C4.363,-4.233 3.746,-4.917 2.658,-4.917C1.487,-4.917 0.672,-4.002 0.613,-3.931L0.613,0.148C0.613,0.261 0.559,0.332 0.429,0.332L0.155,0.332C0.059,0.332 0,0.248 0,0.148L0,-5.203Z" style="fill:rgb(32,48,55);fill-rule:nonzero;"/>
    </g>
    <g transform="matrix(4.16667,0,0,4.16667,867.067,197.364)">
        <path d="M0,4.892C0.873,4.892 1.63,4.363 1.902,4.006L1.902,2.431C1.718,2.347 1.146,2.133 0.458,2.133C-0.63,2.133 -1.356,2.691 -1.356,3.536C-1.356,4.363 -0.785,4.892 0,4.892M0.458,1.616C1.117,1.616 1.747,1.818 1.902,1.872C1.902,0.617 1.772,-0.013 0.643,-0.013C-0.298,-0.013 -0.945,0.331 -1.071,0.373C-1.188,0.415 -1.26,0.356 -1.285,0.26L-1.356,0.087C-1.402,-0.043 -1.344,-0.102 -1.272,-0.127C-1.23,-0.156 -0.5,-0.559 0.688,-0.559C2.432,-0.559 2.503,0.487 2.503,1.948L2.503,5.123C2.503,5.224 2.419,5.308 2.318,5.308L2.146,5.308C2.045,5.308 2.003,5.249 1.974,5.152L1.919,4.636C1.546,4.98 0.844,5.451 -0.071,5.451C-1.13,5.451 -1.944,4.72 -1.944,3.548C-1.944,2.448 -1.046,1.616 0.458,1.616" style="fill:rgb(32,48,55);fill-rule:nonzero;"/>
    </g>
    <g transform="matrix(4.16667,0,0,4.16667,899.424,210.435)">
        <path d="M0,-2.995L-0.673,-2.995C-0.815,-2.995 -0.845,-3.066 -0.845,-3.18L-0.845,-3.407C-0.845,-3.507 -0.773,-3.549 -0.673,-3.549L0,-3.549L0,-5.112C0,-5.225 0.084,-5.296 0.185,-5.296L0.428,-5.309C0.528,-5.309 0.612,-5.225 0.612,-5.124L0.612,-3.549L2.604,-3.549C2.717,-3.549 2.788,-3.465 2.788,-3.365L2.788,-3.18C2.788,-3.066 2.717,-2.995 2.604,-2.995L0.612,-2.995L0.612,0.654C0.612,1.327 0.684,1.7 1.356,1.7C1.86,1.7 2.473,1.427 2.658,1.314C2.788,1.243 2.847,1.297 2.889,1.369L2.989,1.541C3.044,1.642 3.031,1.726 2.943,1.784C2.729,1.957 2.104,2.314 1.284,2.314C0.101,2.314 0,1.612 0,0.696L0,-2.995Z" style="fill:rgb(32,48,55);fill-rule:nonzero;"/>
    </g>
    <g transform="matrix(4.16667,0,0,4.16667,929.713,219.303)">
        <path d="M0,-5.493C0,-5.594 0.088,-5.678 0.188,-5.678L0.444,-5.678C0.546,-5.678 0.63,-5.594 0.63,-5.493L0.63,-2.419C0.63,-1.087 1.247,-0.415 2.335,-0.415C3.519,-0.415 4.179,-1.344 4.221,-1.415L4.221,-5.493C4.221,-5.606 4.292,-5.678 4.409,-5.678L4.665,-5.678C4.767,-5.678 4.851,-5.594 4.851,-5.493L4.851,-0.142C4.851,-0.042 4.767,0.042 4.665,0.042L4.493,0.042C4.38,0.042 4.338,-0.042 4.321,-0.13L4.267,-0.688C4.106,-0.487 3.422,0.185 2.288,0.185C0.688,0.185 0,-0.802 0,-2.419L0,-5.493Z" style="fill:rgb(32,48,55);fill-rule:nonzero;"/>
    </g>
    <g transform="matrix(4.16667,0,0,4.16667,971.079,218.095)">
        <path d="M0,-5.203C0,-5.304 0.084,-5.388 0.185,-5.388L0.356,-5.388C0.44,-5.388 0.513,-5.333 0.529,-5.232L0.588,-4.644C0.73,-4.846 1.302,-5.535 2.373,-5.535C2.83,-5.535 3.146,-5.404 3.259,-5.362C3.389,-5.316 3.46,-5.22 3.418,-5.102L3.305,-4.816C3.259,-4.716 3.175,-4.703 3.074,-4.745C3.003,-4.774 2.717,-4.917 2.331,-4.917C1.214,-4.917 0.672,-4.018 0.63,-3.931L0.63,0.148C0.63,0.261 0.571,0.332 0.44,0.332L0.155,0.332C0.059,0.332 0,0.248 0,0.148L0,-5.203Z" style="fill:rgb(32,48,55);fill-rule:nonzero;"/>
    </g>
    <g transform="matrix(4.16667,0,0,4.16667,1020.46,208.978)">
        <path d="M0,-0.684C0,-1.801 -0.672,-2.771 -1.962,-2.771C-3.222,-2.771 -4.065,-1.856 -4.137,-0.684L0,-0.684ZM-1.962,-3.347C-0.458,-3.347 0.63,-2.242 0.63,-0.726C0.63,-0.499 0.63,-0.167 0.415,-0.167L-4.149,-0.167C-4.091,1.063 -3.205,2.092 -1.92,2.092C-1.159,2.092 -0.571,1.79 -0.231,1.563C-0.102,1.475 -0.042,1.462 0.029,1.563L0.172,1.76C0.214,1.819 0.197,1.907 0.113,1.991C-0.173,2.276 -1.075,2.663 -1.962,2.663C-3.704,2.663 -4.779,1.319 -4.779,-0.356C-4.779,-1.986 -3.704,-3.347 -1.962,-3.347" style="fill:rgb(32,48,55);fill-rule:nonzero;"/>
    </g>
    <g transform="matrix(4.16667,0,0,4.16667,307.499,42.235)">
        <path d="M0,28.016L-2.617,28.016L-7.824,13.015L-7.484,12.516L-3.045,12.516L-3.045,2.201L-9.437,2.201L-9.437,28.016L-11.923,28.016L-11.923,0L-2.545,0C-1.957,0 -1.482,0.185 -1.113,0.555C-0.744,0.924 -0.555,1.403 -0.555,1.987L-0.555,12.62C-0.555,13.968 -1.461,14.644 -3.276,14.644C-3.457,14.644 -3.721,14.636 -4.065,14.615C-4.41,14.599 -4.662,14.59 -4.817,14.59C-3.205,19.054 -1.6,23.531 0,28.016" style="fill:rgb(32,48,55);fill-rule:nonzero;"/>
    </g>
    <g transform="matrix(4.16667,0,0,4.16667,-53.9658,-883.471)">
        <path d="M97.62,234.756L92.496,234.756L92.496,240.001L97.62,240.001L97.62,234.756ZM99.926,248.162C99.926,249.51 99.258,250.185 97.922,250.185L92.194,250.185C90.858,250.185 90.191,249.51 90.191,248.162L90.191,234.79C90.191,233.442 90.858,232.77 92.194,232.77L97.922,232.77C99.258,232.77 99.926,233.442 99.926,234.79L99.926,241.056L99.124,241.895L92.497,241.895L92.497,248.199L97.62,248.199L97.62,245.012L99.926,245.012L99.926,248.162Z" style="fill:rgb(32,48,55);fill-rule:nonzero;"/>
    </g>
    <g transform="matrix(4.16667,0,0,4.16667,410.196,95.885)">
        <path d="M0,12.973L0,6.816L-5.316,6.816L-5.316,13.082L0,12.973ZM2.31,15.14L-0.033,15.14L-0.033,14.657C-0.979,14.787 -1.919,14.913 -2.864,15.031C-4.032,15.178 -4.968,15.249 -5.673,15.249C-6.976,15.249 -7.626,14.603 -7.626,13.313L-7.626,6.959C-7.626,5.624 -6.95,4.956 -5.602,4.956L0,4.956L0,-0.289L-5.119,-0.289L-5.119,2.68L-7.429,2.68L-7.429,-0.256C-7.429,-1.604 -6.761,-2.276 -5.421,-2.276L0.307,-2.276C1.642,-2.276 2.31,-1.604 2.31,-0.256L2.31,15.14Z" style="fill:rgb(32,48,55);fill-rule:nonzero;"/>
    </g>
    <g transform="matrix(-4.16667,0,0,4.16667,937.113,-927.642)">
        <rect x="117.758" y="232.77" width="2.343" height="28.016" style="fill:rgb(32,48,55);"/>
    </g>
    <g transform="matrix(4.16667,0,0,4.16667,532.757,42.235)">
        <path d="M0,28.016L-9.202,28.016L-9.202,0L-0.109,0L-0.109,2.201L-6.715,2.201L-6.715,12.658L-0.697,12.658L-0.697,14.896L-6.715,14.896L-6.715,25.816L0,25.816L0,28.016Z" style="fill:rgb(32,48,55);fill-rule:nonzero;"/>
    </g>
    <g transform="matrix(4.16667,0,0,4.16667,586.828,94.835)">
        <path d="M0,13.368C0,14.716 -0.672,15.392 -2.02,15.392L-7.484,15.392C-8.832,15.392 -9.504,14.716 -9.504,13.368L-9.504,9.412L-7.161,9.412L-7.161,13.334L-2.344,13.334L-2.344,9.861L-8.576,4.759C-9.172,4.28 -9.47,3.662 -9.47,2.898L-9.47,-0.004C-9.47,-1.352 -8.794,-2.024 -7.446,-2.024L-2.058,-2.024C-0.71,-2.024 -0.034,-1.352 -0.034,-0.004L-0.034,3.47L-2.344,3.47L-2.344,0.034L-7.161,0.034L-7.161,3.075L-0.878,8.177C-0.29,8.643 0,9.278 0,10.076L0,13.368Z" style="fill:rgb(32,48,55);fill-rule:nonzero;"/>
    </g>
    <g transform="matrix(4.16667,0,0,4.16667,628.684,63.7933)">
        <path d="M0,22.842L-3.385,22.842C-4.72,22.842 -5.392,22.166 -5.392,20.818L-5.392,7.518L-7.484,7.518L-7.484,5.426L-5.392,5.426L-5.392,0L-3.045,0L-3.045,5.426L0,5.426L0,7.518L-3.045,7.518L-3.045,20.747L0,20.747L0,22.842Z" style="fill:rgb(32,48,55);fill-rule:nonzero;"/>
    </g>
    <g transform="matrix(4.16667,0,0,4.16667,672.745,95.885)">
        <path d="M0,12.973L0,6.816L-5.317,6.816L-5.317,13.082L0,12.973ZM2.31,15.14L-0.034,15.14L-0.034,14.657C-0.979,14.787 -1.919,14.913 -2.864,15.031C-4.032,15.178 -4.968,15.249 -5.674,15.249C-6.976,15.249 -7.626,14.603 -7.626,13.313L-7.626,6.959C-7.626,5.624 -6.95,4.956 -5.602,4.956L0,4.956L0,-0.289L-5.119,-0.289L-5.119,2.68L-7.429,2.68L-7.429,-0.256C-7.429,-1.604 -6.761,-2.276 -5.422,-2.276L0.307,-2.276C1.642,-2.276 2.31,-1.604 2.31,-0.256L2.31,15.14Z" style="fill:rgb(32,48,55);fill-rule:nonzero;"/>
    </g>
    <g transform="matrix(4.16667,0,0,4.16667,724.749,63.7933)">
        <path d="M0,22.842L-3.385,22.842C-4.72,22.842 -5.392,22.166 -5.392,20.818L-5.392,7.518L-7.483,7.518L-7.483,5.426L-5.392,5.426L-5.392,0L-3.044,0L-3.044,5.426L0,5.426L0,7.518L-3.044,7.518L-3.044,20.747L0,20.747L0,22.842Z" style="fill:rgb(32,48,55);fill-rule:nonzero;"/>
    </g>
    <g transform="matrix(4.16667,0,0,4.16667,-53.9658,-883.471)">
        <path d="M197.366,234.756L192.242,234.756L192.242,240.001L197.366,240.001L197.366,234.756ZM199.672,248.162C199.672,249.51 199.004,250.185 197.668,250.185L191.94,250.185C190.604,250.185 189.937,249.51 189.937,248.162L189.937,234.79C189.937,233.442 190.604,232.77 191.94,232.77L197.668,232.77C199.004,232.77 199.672,233.442 199.672,234.79L199.672,241.056L198.869,241.895L192.242,241.895L192.242,248.199L197.366,248.199L197.366,245.012L199.672,245.012L199.672,248.162Z" style="fill:rgb(32,48,55);fill-rule:nonzero;"/>
    </g>
    <g transform="matrix(4.16667,0,0,4.16667,872.263,50.5125)">
        <path d="M0,24.043C0,24.627 -0.188,25.105 -0.571,25.475C-0.953,25.845 -1.437,26.029 -2.02,26.029L-9.234,26.029C-9.818,26.029 -10.297,25.845 -10.667,25.475C-11.036,25.105 -11.222,24.627 -11.222,24.043L-11.222,0C-11.222,-0.583 -11.036,-1.062 -10.667,-1.432C-10.297,-1.802 -9.818,-1.986 -9.234,-1.986L-2.02,-1.986C-1.437,-1.986 -0.953,-1.802 -0.571,-1.432C-0.188,-1.062 0,-0.583 0,0L0,6.518L-2.503,6.518L-2.503,0.214L-8.735,0.214L-8.735,23.829L-2.503,23.829L-2.503,16.938L0,16.938L0,24.043Z" style="fill:rgb(32,48,55);fill-rule:nonzero;"/>
    </g>
    <g transform="matrix(4.16667,0,0,4.16667,920.611,95.885)">
        <path d="M0,12.973L0,6.816L-5.316,6.816L-5.316,13.082L0,12.973ZM2.311,15.14L-0.033,15.14L-0.033,14.657C-0.979,14.787 -1.919,14.913 -2.864,15.031C-4.031,15.178 -4.968,15.249 -5.674,15.249C-6.976,15.249 -7.626,14.603 -7.626,13.313L-7.626,6.959C-7.626,5.624 -6.95,4.956 -5.602,4.956L0,4.956L0,-0.289L-5.119,-0.289L-5.119,2.68L-7.429,2.68L-7.429,-0.256C-7.429,-1.604 -6.761,-2.276 -5.422,-2.276L0.307,-2.276C1.643,-2.276 2.311,-1.604 2.311,-0.256L2.311,15.14Z" style="fill:rgb(32,48,55);fill-rule:nonzero;"/>
    </g>
    <g transform="matrix(4.16667,0,0,4.16667,984.445,134.65)">
        <path d="M0,-5.851L-2.343,-5.851L-2.343,-9.45L-6.728,-9.307L-6.728,5.837L-9.108,5.837L-9.108,-11.579L-6.728,-11.579L-6.728,-11.096C-5.942,-11.218 -5.148,-11.344 -4.351,-11.474C-3.393,-11.617 -2.6,-11.688 -1.97,-11.688C-0.654,-11.688 0,-11.038 0,-9.736L0,-5.851Z" style="fill:rgb(32,48,55);fill-rule:nonzero;"/>
    </g>
    <g transform="matrix(4.16667,0,0,4.16667,-53.9658,-883.471)">
        <path d="M259.681,234.756L254.557,234.756L254.557,240.001L259.681,240.001L259.681,234.756ZM261.986,248.162C261.986,249.51 261.318,250.185 259.982,250.185L254.255,250.185C252.919,250.185 252.251,249.51 252.251,248.162L252.251,234.79C252.251,233.442 252.919,232.77 254.255,232.77L259.982,232.77C261.318,232.77 261.986,233.442 261.986,234.79L261.986,241.056L261.184,241.895L254.557,241.895L254.557,248.199L259.681,248.199L259.681,245.012L261.986,245.012L261.986,248.162Z" style="fill:rgb(32,48,55);fill-rule:nonzero;"/>
    </g>
</svg>
